<?xml version="1.0" standalone="no"?>
<!DOCTYPE svg PUBLIC "-//W3C//DTD SVG 20010904//EN"
 "http://www.w3.org/TR/2001/REC-SVG-20010904/DTD/svg10.dtd">
<svg version="1.0" xmlns="http://www.w3.org/2000/svg"
 width="618.000000pt" height="618.000000pt" viewBox="0 0 618.000000 618.000000"
 preserveAspectRatio="xMidYMid meet">
<metadata>
Created by potrace 1.11, written by Peter Selinger 2001-2013
</metadata>
<g transform="translate(0.000000,618.000000) scale(0.100000,-0.100000)"
fill="#000000" stroke="none">
<path d="M1924 5681 c-498 -497 -554 -560 -647 -733 -68 -126 -144 -335 -161
-448 -3 -14 -8 -45 -12 -70 -4 -25 -8 -58 -10 -75 -2 -16 -5 -374 -6 -795 -1
-618 2 -771 12 -790 11 -20 14 -186 15 -840 1 -554 5 -837 13 -885 21 -130 61
-245 128 -376 136 -262 382 -477 664 -577 197 -70 143 -67 1185 -67 940 0 940
0 1032 22 248 61 449 175 622 353 49 50 139 169 164 215 69 129 127 277 142
360 2 17 7 41 10 55 15 77 18 220 18 970 0 766 -4 968 -20 993 -3 5 -7 312 -8
681 -1 369 -5 696 -9 726 -89 628 -535 1143 -1141 1314 -49 14 -110 28 -135
31 -24 4 -47 8 -50 10 -20 13 -213 18 -664 19 l-519 1 -3 70 c-4 107 -43 206
-110 282 l-29 32 -481 -478z"/>
</g>
</svg>
